<?xml version="1.0"?>
<svg xmlns:rdf="http://www.w3.org/1999/02/22-rdf-syntax-ns#" xmlns="http://www.w3.org/2000/svg" xmlns:cc="http://creativecommons.org/ns#" xmlns:dc="http://purl.org/dc/elements/1.1/" xmlns:svg="http://www.w3.org/2000/svg" id="svg2" viewBox="0 0 681.15 1300.9" version="1.0">
  <path id="path2904" fill="#010101" d="m235.35 125.67c-7.71-3.5-12.42-11.5-12.42-21.11 0-10.116 3.6-16.124 12.21-20.418 9.36-4.661 21.6-2.336 28.05 5.327 2.71 3.218 5.73 11.521 5.73 15.741 0 3.66-3.74 12.62-6.52 15.61-6.23 6.69-18.25 8.85-27.05 4.85zm217.07 0.29c-11.1-6.05-15.84-18.2-11.54-29.604 6.87-18.203 32.61-19.985 41.29-2.857 5.59 11.021 2.38 24.311-7.44 30.811-3.48 2.3-5.41 2.8-11.73 3.02-5.52 0.19-8.39-0.18-10.58-1.37zm145.28-1.15c-5.52-3.21-9.38-8.06-10.91-13.72-1.25-4.65-0.46-13.496 1.56-17.362 3.5-6.689 12.8-12.105 20.86-12.142 19.83-0.091 30.15 24.784 16.27 39.234-7.04 7.32-19.05 9.05-27.78 3.99zm-400.53-22.77c-2.17-1.53-2.25-2.143-2.25-17.341 0-11.076 0.37-16.23 1.25-17.362 0.93-1.195 12.6-3.561 45.25-9.178l44-7.568 20-20.377c11-11.207 20.99-20.888 22.19-21.513 1.56-0.8118 19.27-1.1358 62-1.1341l59.81 0.0025 28 22.572c15.4 12.415 29.02 23.436 30.25 24.491 2.21 1.88 2.25 2.358 2.25 23.426 0 20.343-0.11 21.617-2.04 23.552-1.68 1.67-3.09 2-7.68 1.75l-5.63-0.3-1.16-5.152c-2.3-10.261-11.31-20.255-21.5-23.85-9.75-3.44-22.02-0.734-30.5 6.727-4.76 4.194-7.73 9.507-9.92 17.779l-1.2 4.496h-152.72l-1.15-5.112c-3.47-15.409-17.22-26.069-32.5-25.188-14.45 0.832-25.55 10.55-29.46 25.804l-1.16 4.496-6.94 0.29c-5.08 0.2-7.54-0.15-9.19-1.31zm186.42-45.806c1.32-1.318 1.65-34.215 0.36-36.614-1.07-1.998-1.87-2.056-28.82-2.056h-27.73l-16.33 16.351c-13.24 13.262-16.26 16.799-15.99 18.725 0.69 4.78 2.36 4.948 46.51 4.677 22.64-0.139 41.54-0.626 42-1.083zm80.75-1.594c5.15-4.837 4.1-6.892-11.64-22.766l-14.22-14.345-23.53 0.268-23.53 0.267-0.27 18.497c-0.25 16.742-0.11 18.619 1.5 19.796 1.39 1.02 9.02 1.236 35.44 1.004l33.68-0.297 2.57-2.424zm54.58 47.44c0-1.26 1.77-1.52 10.31-1.52 10.81 0 13.23-0.78 13.87-4.496 0.33-1.896 1.24-2.014 17.64-2.273l17.3-0.274-0.31 4.774-0.31 4.769-29.25 0.27c-25.58 0.23-29.25 0.07-29.25-1.25zm121.32-2.993c-0.57-2.462-0.79-4.712-0.51-5 0.29-0.287 8.11-0.523 17.38-0.523h16.85l-2.54 5-2.53 4.996h-27.63l-1.02-4.473zm-97.32-42.055c0-29.246 0.53-33.072 4.85-35.387 2.74-1.466 119.47-1.514 122.21-0.051 4.56 2.441 4.94 5.149 4.94 34.921v28.049h-41.2l-4.75-4.271c-5.26-4.726-13.05-7.729-20.05-7.729s-14.78 3.003-20.04 7.729l-4.75 4.271h-41.21v-27.532z"/>
  <path id="path2990" fill="#010101" d="m448.3 989.55c-8.64-2.25-13.7-9.1-13.7-18.53 0-6.36 1.84-10.85 5.83-14.21 9.64-8.11 24.81-5.35 30.04 5.46 3.27 6.75 2.89 13.38-1.12 19.39-4.95 7.4-12.33 10.17-21.05 7.89zm156.8-1.41c-6.68-4.16-10.51-10.16-10.5-16.44 0.02-11.92 8.99-20.35 20.69-19.43 12.33 0.96 20.99 13.1 17.3 24.26-1.55 4.72-6.58 10.42-10.7 12.14-4.74 1.98-13.2 1.71-16.79-0.53zm-183.75-19.2c-1.58-0.92-1.75-3.04-1.75-21.35v-20.33l6.54-17.37c3.61-9.55 7.2-18.36 8-19.57 0.8-1.22 2.9-2.46 4.7-2.76 4.7-0.81 47.8-3.16 48.32-2.64 0.24 0.24 0.44 15.16 0.44 33.16 0 28.92 0.18 32.79 1.58 33.33 0.87 0.33 24.49 0.61 52.5 0.61 28.54 0 50.92 0.38 50.92 0.88 0 0.48-0.67 1.42-1.48 2.1-0.81 0.67-2.48 4.33-3.7 8.13l-2.22 6.91-51.55-0.26-51.55-0.26-1.68-5.24c-3.62-11.28-12.96-19.36-24.18-20.9-7.92-1.08-19.96 4.1-24.86 10.71-1.05 1.41-2.95 5.44-4.22 8.96-2.48 6.84-3.1 7.47-5.81 5.89zm27.72-42.48c8.82-0.85 17.04-1.97 18.28-2.48 2.19-0.9 2.25-1.3 2.25-15.97 0-12.53-0.26-15.15-1.52-15.64-2.76-1.06-30.66 1.39-32.07 2.82-2.4 2.43-11.59 27.99-10.96 30.49 0.72 2.88 1.97 2.92 24.02 0.78zm193.19 42.89c-0.36-0.37-0.66-1.62-0.66-2.79 0-2.18-2.19-6.95-5.41-11.79l-1.82-2.75h37.32l-0.3 6.25-0.29 6.25-8 2.68c-7.62 2.56-19.23 3.76-20.84 2.15z"/>
  <path id="path2976" fill="#010101" d="m242.35 238.49c-0.92-0.53-2.17-2.48-2.78-4.32-2.59-7.85 4.65-14.01 12.34-10.51 5.04 2.3 5.85 11.19 1.31 14.37-2.41 1.69-8.34 1.94-10.87 0.46zm-21.83-9.96c0-0.56 2.84-1 6.5-1 3.67 0 6.5 0.44 6.5 1s-2.83 1-6.5 1c-3.66 0-6.5-0.44-6.5-1zm41 0c0-0.56 2.69-1 6.06-1 3.79 0 5.83 0.38 5.44 1-0.34 0.55-3.06 1-6.06 1-2.99 0-5.44-0.45-5.44-1zm-41-18.3c0-7.45 0.41-11.71 1.2-12.5 0.87-0.87 8.13-1.2 26.4-1.2 22.05 0 25.26 0.2 25.8 1.58 0.33 0.87 0.6 6.5 0.6 12.5v10.92h-8.04c-6.77 0-8.52-0.35-11.08-2.25-2.17-1.6-4.43-2.25-7.88-2.25-3.44 0-5.7 0.65-7.87 2.25-2.57 1.9-4.32 2.25-11.09 2.25h-8.04v-11.3z"/>
  <path id="path2980" fill="#010101" d="m107.51 391.58c-5.52-3.2-9.382-8.06-10.907-13.72-1.255-4.65-0.461-13.49 1.559-17.36 3.498-6.69 12.798-12.1 20.848-12.14 19.84-0.09 30.16 24.78 16.28 39.23-7.04 7.33-19.06 9.05-27.78 3.99zm-78.778-22.73c0-1.25 1.766-1.51 10.309-1.51 10.805 0 13.225-0.79 13.869-4.5 0.33-1.9 1.24-2.02 17.641-2.28l17.292-0.27-0.305 4.77-0.306 4.78-29.25 0.26c-25.58 0.24-29.25 0.08-29.25-1.25zm121.31-2.99c-0.56-2.46-0.78-4.71-0.5-5 0.29-0.29 8.11-0.52 17.38-0.52h16.85l-2.54 5-2.53 5h-27.63l-1.03-4.48zm-97.308-42.05c0-29.25 0.524-33.08 4.85-35.39 2.738-1.47 119.47-1.52 122.21-0.05 4.56 2.44 4.94 5.15 4.94 34.92v28.05h-41.2l-4.75-4.27c-5.26-4.73-13.05-7.73-20.05-7.73s-14.78 3-20.041 7.73l-4.751 4.27h-41.206v-27.53z"/>
  <path id="path2962" fill="#010101" d="m388.35 265.22c-7.33-1.9-14.19-7.69-16.95-14.33-2.14-5.12-1.97-15.29 0.33-20.28 4.1-8.91 12.26-13.88 22.65-13.8 6.36 0.05 14.29 3.17 17.6 6.94 2.93 3.34 5.97 10.4 6.52 15.18 1.04 9.06-5.97 21.32-14.15 24.74-4.17 1.74-12.25 2.52-16 1.55zm228.67-0.97c-5.92-2.1-12.23-7.63-14.74-12.92-1.21-2.55-1.54-5.55-1.28-11.58 0.31-7.41 0.65-8.57 3.78-12.91 10.46-14.53 33.74-13.17 41.65 2.43 3.67 7.25 4.08 13.08 1.42 20.15-4.95 13.12-17.98 19.39-30.83 14.83zm-273.17-24.84c-3.56-1.27-4-3.44-4-19.8 0-11.32 0.37-16.63 1.25-17.82 0.97-1.33 11.47-3.43 48.16-9.64l46.92-7.94 22.63-22.55 22.64-22.55h130.39l29.75 23.58c16.37 12.98 30.77 24.7 32.01 26.06 2.19 2.41 2.25 3.04 2.25 24.72 0 26.77 0.23 26.14-9.56 26.14h-6.72l-1.68-6c-2.37-8.5-4.23-11.59-10.25-17.01-7.7-6.93-12.51-8.79-22.79-8.79-10.18 0-15.58 2.03-22.62 8.5-4.91 4.5-10.37 14.38-10.4 18.8-0.03 5.27 4.17 5.03-82.44 4.75l-80.84-0.25-1.67-6c-2.36-8.49-4.22-11.58-10.24-17.01-7.54-6.79-12.55-8.76-22.29-8.79-9.9-0.02-15.04 1.8-22.09 7.83-5.63 4.81-11.41 14.65-11.41 19.43 0 1.45-0.54 3.18-1.2 3.84-1.2 1.19-12.83 1.57-15.8 0.5zm196-49.28c1.22-0.77 1.55-4.27 1.81-18.93 0.2-11.74-0.07-18.7-0.79-20.04-1.06-2-1.88-2.05-30.08-2.05h-28.99l-17.48 16.73c-14.21 13.61-17.47 17.24-17.47 19.45 0 5.8 0.18 5.82 47.97 5.8 25.62-0.01 44.14-0.4 45.03-0.96zm87.42-1.95c1.67-1.57 2.58-3.49 2.58-5.46 0-2.59-2.28-5.32-15.29-18.33l-15.29-15.28h-23.63c-13 0-24.34 0.27-25.21 0.6-1.37 0.53-1.58 3.23-1.58 19.8 0 13.9 0.34 19.54 1.23 20.43 0.95 0.95 9.84 1.17 37.92 0.95l36.69-0.28 2.58-2.43z"/>
  <path id="path2958" fill="#010101" d="m29.11 128.66c-4.861-1.3-12.597-8.18-14.91-13.27-3.702-8.15-1.644-20.865 4.434-27.39 8.654-9.291 26.119-9.569 35.038-0.557 9.646 9.746 9.772 25.337 0.282 34.827-6.633 6.63-15.42 8.89-24.844 6.39zm15.115-7.45c8.532-4.25 12.206-12.26 9.619-20.98-3.219-10.833-14.04-16.116-24.268-11.843-4.75 1.985-7.022 4.089-9.361 8.672-4.747 9.301-0.544 20.191 9.607 24.891 5.412 2.51 8.169 2.37 14.403-0.74zm90.465 7.21c-8.57-2.68-15.3-10.78-16.84-20.28-1.58-9.682 5.73-22.313 14.94-25.831 7.01-2.676 17.27-1.729 22.71 2.098 2.35 1.649 5.61 4.917 7.26 7.263 3.82 5.43 4.78 15.71 2.12 22.67-4.51 11.8-17.75 17.98-30.19 14.08zm14.13-6.47c13.53-6.26 15.54-22.87 3.84-31.793-3.18-2.427-4.58-2.808-10.34-2.808-5.75 0-7.15 0.381-10.34 2.808-9.75 7.443-10.19 22.603-0.83 29.053 7.27 5.02 11.38 5.66 17.67 2.74zm-65.098-10.12c-11.235-1.19-15.469-4.22-17.951-12.879-2.284-7.962-5.796-13.511-11.129-17.584-4.691-3.582-12.503-6.518-17.341-6.518-3.256 0-4.979-3.236-4.979-9.351 0-5.446 3.756-9.308 13.228-13.6 7.583-3.436 9.308-3.7 10.133-1.549 0.317 0.825 0.963 1.5 1.437 1.5s7.764-5.175 16.202-11.5c20.652-15.482 22.267-15.473 34.038 0.194 3.88 5.156 7.28 9.976 7.56 10.711 0.49 1.256-11.34 10.654-13.28 10.552-0.45-0.024-4.07-4.524-8.044-10-4.48-6.174-7.9-9.955-9-9.951-2.059 0.007-25.136 17.471-25.975 19.657-0.649 1.69 4.818 7.783 8.901 9.922 3.843 2.014 6.33 1.756 8.048-0.835 1.403-2.116 2.287-2.27 14.872-2.578l13.378-0.327 7.22-5.423c3.97-2.982 7.59-5.422 8.05-5.422 0.45 0 2.38 2.453 4.28 5.452l3.45 5.452 12.13 0.048c12.9 0.051 15.2 0.858 13.93 4.879-0.53 1.661-1.82 1.988-9.34 2.365-10.49 0.528-16.31 2.839-22.06 8.763-6.38 6.567-8.65 12.155-8.65 21.292l-0.01 7.75-11-0.14c-6.048-0.07-14.193-0.47-18.098-0.88zm-8.026-83.448c-1.008-2.628 0.168-3.874 4.686-4.963 4.223-1.018 4.455-1.261 4.759-4.968 0.378-4.613-0.97-5.816-5.569-4.974-3.646 0.667-4.01-0.136-1.478-3.261 2.488-3.0715 5.517-4.3671 10.212-4.3671 8.328 0 13.404 5.2691 12.824 13.306l-0.31 4.194h-6.518c-5.649 0-7.196 0.434-11.588 3.25-5.754 3.69-6.239 3.813-7.018 1.783z"/>
  <path id="path3206" fill="#010101" d="m27.829 258.16c-4.861-1.29-12.597-8.18-14.91-13.27-3.7016-8.15-1.644-20.86 4.434-27.38 8.654-9.3 26.119-9.57 35.038-0.56 9.646 9.74 9.772 25.33 0.282 34.82-6.633 6.64-15.42 8.9-24.844 6.39zm105.58-0.23c-8.57-2.68-15.3-10.79-16.85-20.29-1.57-9.68 5.73-22.31 14.95-25.83 7-2.67 17.27-1.72 22.71 2.1 2.35 1.65 5.61 4.92 7.26 7.27 3.82 5.43 4.78 15.7 2.12 22.67-4.51 11.8-17.75 17.97-30.19 14.08zm-50.969-16.6c-11.235-1.18-15.469-4.22-17.951-12.87-2.283-7.97-5.796-13.52-11.129-17.59-4.691-3.58-12.503-6.52-17.341-6.52-3.256 0-4.979-3.23-4.979-9.35 0-5.44 3.756-9.3 13.228-13.6 7.583-3.43 9.308-3.7 10.133-1.55 0.317 0.83 0.964 1.5 1.437 1.5 0.474 0 7.764-5.17 16.202-11.5 20.652-15.48 22.267-15.47 34.039 0.2 3.88 5.15 7.28 9.97 7.56 10.71 0.48 1.26-11.34 10.65-13.28 10.55-0.45-0.02-4.071-4.52-8.045-10-4.48-6.17-7.9-9.95-9-9.95-2.059 0.01-25.136 17.47-25.975 19.66-0.649 1.69 4.818 7.78 8.901 9.92 3.843 2.01 6.33 1.75 8.048-0.84 1.403-2.11 2.287-2.27 14.872-2.57l13.379-0.33 7.22-5.42c3.97-2.99 7.59-5.43 8.05-5.43 0.45 0 2.38 2.46 4.28 5.46l3.45 5.45 12.13 0.05c12.9 0.05 15.2 0.85 13.92 4.88-0.52 1.66-1.81 1.98-9.33 2.36-10.49 0.53-16.31 2.84-22.06 8.76-6.38 6.57-8.65 12.16-8.65 21.29l-0.01 7.75-11-0.13c-6.049-0.08-14.194-0.47-18.099-0.89zm-8.026-83.44c-1.008-2.63 0.168-3.88 4.686-4.97 4.223-1.01 4.455-1.26 4.759-4.96 0.378-4.62-0.97-5.82-5.569-4.98-3.646 0.67-4.01-0.13-1.478-3.26 2.488-3.07 5.517-4.37 10.212-4.37 8.328 0 13.405 5.27 12.821 13.31l-0.305 4.19h-6.52c-5.649 0-7.196 0.44-11.587 3.25-5.755 3.69-6.24 3.82-7.019 1.79z"/>
  <path id="path3579" fill="#010101" d="m92.988 1291.8c-5.069-1.6-10.745-6.6-12.734-11.2-1.794-4.2-1.774-14.6 0.034-18.1 1.678-3.2 7.077-8.4 10.585-10.3 3.495-1.8 13.837-1.6 17.497 0.3 3.97 2.1 9.12 7.6 10.44 11.1 1.49 4 1.32 13.2-0.32 17-1.99 4.6-7.38 9.3-12.9 11.1-5.658 1.9-6.828 1.9-12.602 0.1zm175.88-0.4c-14.87-5.2-18.87-23.8-7.48-34.7 7.45-7.2 18.87-8.1 26.75-2 6.6 5.1 8.12 7.8 8.56 15.5 0.28 5-0.06 7.7-1.34 10.2-5.25 10.4-15.73 14.7-26.49 11zm171.88-0.6c-13.06-6.8-15.87-26.6-5.22-36.7 6.43-6.1 17.39-8.5 24.76-5.4 18.6 7.8 19.37 34.4 1.25 43-5.3 2.5-15.09 2.1-20.79-0.9zm-412.89-22.5c-0.73-1.4-1-8.8-0.796-21.8l0.308-19.7 8.25-22.9c4.537-12.5 8.25-24.1 8.25-25.7 0-1.8-0.72-3.2-2-3.9-1.542-0.8-2-2.1-2-5.5v-4.5h148.55c164.8 0 152.84-0.5 155.71 6.7 0.83 2.1 4.26 13.5 7.63 25.5l6.11 21.6v22.2c0 25.1-0.49 27.2-6.98 29.1-2.05 0.6-12.05 0.9-24.02 0.7l-20.5-0.3-0.35-2.5c-0.19-1.4-1.6-5.3-3.13-8.6-4.45-9.8-15.98-17.4-26.48-17.4-14.05 0-27.43 11.3-30.07 25.3l-0.69 3.7-58.11-0.2-58.11-0.3-0.71-4.2c-1.5-8.7-7.72-16.6-17.05-21.5-6.08-3.1-18.475-3.2-24.519 0-9.133 4.8-15.654 12.9-17.09 21.3l-0.742 4.4-20.177 0.3c-19.499 0.2-20.214 0.2-21.281-1.8zm56.401-48.5c2.366-2.4 2.774-6.6 2.43-25.4-0.291-15.7-0.491-17.4-2.26-18.7-1.474-1.1-5.565-1.4-17-1.4-8.283 0-15.654 0.4-16.382 0.9-1.492 0.9-15.177 37.2-15.177 40.2 0 1 0.9 2.8 2 3.9 1.876 1.9 3.333 2 23.429 2 17.914 0 21.679-0.3 22.96-1.5zm51.778-0.2c1.04-0.9 1.82-2.9 1.81-4.7-0.04-4.4-10.5-38.7-12.12-39.7-0.75-0.5-7.68-0.9-15.42-0.9-10.579 0-14.535 0.4-15.996 1.4-1.809 1.3-1.941 2.8-1.941 21.4 0 18.3 0.165 20.2 1.905 22.1 1.809 2 2.859 2.1 20.922 2.1 16.29 0 19.28-0.2 20.84-1.7zm51 0c1.01-0.9 1.83-2.5 1.83-3.5 0-3.6-10.19-38.3-11.75-40-1.38-1.6-3.7-1.8-20.07-1.8-20.53 0-22.18 0.5-22.18 6.3 0 4.2 9.84 36.8 11.74 39 1.39 1.5 3.72 1.7 20.09 1.7 15.83 0 18.78-0.2 20.34-1.7zm50.83-0.3c1.1-1.1 2-2.4 2-2.8 0-0.5-2.48-9.6-5.51-20.3-3.37-11.8-6.16-19.9-7.19-20.6-1.2-0.9-6.89-1.3-19.92-1.3-20.16 0-21.38 0.4-21.38 6.2 0 4.9 9.16 36.6 11.22 38.8 1.73 1.9 3.15 2 20.32 2 17.13 0 18.61-0.1 20.46-2zm50.43 0.4c0.87-0.8 1.57-2.8 1.57-4.4 0-5-9.83-38.4-11.69-39.7-1.21-0.9-7.02-1.3-20.48-1.3h-18.78l-1.63 2.5c-1.56 2.4-1.39 3.4 3.72 21.7 3.02 10.9 6.13 20.1 7.11 21 1.54 1.6 3.95 1.8 20.18 1.8 15.42 0 18.69-0.3 20-1.6zm50.74-0.1c2.69-2.4 2.32-5.6-2.76-23.5-4.68-16.6-5.85-19.7-7.81-21-0.6-0.4-9.39-0.8-19.52-0.8-15.75 0-18.68 0.2-20.25 1.7-1 0.9-1.82 2.6-1.81 3.7 0.03 4.4 10.86 39 12.61 40.3 1.27 0.9 6.67 1.3 19.74 1.3 15.32 0 18.25-0.2 19.8-1.7zm22.83 48.2c0-1.2 1.77-1.5 10.31-1.5 10.81 0 13.23-0.8 13.87-4.5 0.33-1.9 1.24-2 17.64-2.3l17.29-0.2-0.3 4.7-0.31 4.8-29.25 0.3c-25.58 0.2-29.25 0-29.25-1.3zm121.32-3c-0.57-2.4-0.79-4.7-0.51-5 0.86-0.8 33.03-0.6 33.57 0.3 0.27 0.4-0.5 2.6-1.72 4.7l-2.22 4-14.04 0.3-14.05 0.3-1.03-4.6zm-97.32-41.9c0-17.4 0.4-28.5 1.11-30.5 2.18-6.2 0.83-6.1 65.41-6.1 38.29 0 59.28 0.4 60.54 1 4.56 2.5 4.94 5.2 4.94 35v28h-41.6l-3.33-3.4c-10.5-10.9-31.63-10.9-42.13 0l-3.33 3.4h-41.61v-27.4z"/>
  <path id="path3535" fill="#010101" d="m331.2 993.79c-6.43-2.05-12.99-8.75-14.52-14.83-4.17-16.54 5.61-29.98 21.87-30.06 5.27-0.03 7.34 0.46 11 2.62 5.96 3.51 8.61 6.49 10.46 11.75 6.63 18.77-10.09 36.49-28.81 30.52zm-284.03-0.9c-4.293-1.53-10.032-6.57-12.21-10.73-1.663-3.17-1.871-13.46-0.353-17.48 1.463-3.88 6.756-9.26 10.827-11.01 3.911-1.67 12.406-1.91 16.25-0.45 3.954 1.51 9.981 7.19 11.51 10.84 1.735 4.16 1.737 13.45 0.004 17.58-1.831 4.38-8.676 10.36-13.332 11.65-4.983 1.38-7.961 1.29-12.696-0.4zm147.25-0.09c-12.24-3.77-17.74-20.48-10.4-31.57 3.1-4.69 6.26-6.83 12.44-8.44 12.54-3.25 24.87 4.9 25.88 17.1 0.69 8.27-0.44 12.14-4.98 17.06-2.9 3.15-5.51 4.84-9.12 5.91-6.07 1.8-7.79 1.79-13.82-0.06zm-181.81-23.32c-0.639-1.2-1.062-9.35-1.062-20.5v-18.52l8.5-24.16c4.675-13.28 8.5-25.16 8.5-26.39s-0.921-3.07-2.047-4.09c-1.55-1.4-1.976-2.84-1.75-5.91l0.297-4.05 99.003-0.26c72.93-0.19 99.73 0.04 101.79 0.89 1.54 0.64 3.43 2.37 4.2 3.85 0.76 1.49 4.34 13.14 7.95 25.89l6.56 23.2v22.02c0 24.28-0.48 26.62-5.88 28.86-4.75 1.97-6.19 1.09-8.07-4.95-2.62-8.41-4.54-11.42-10.15-15.88-6.04-4.81-11.09-6.49-19.53-6.48-7.04 0.01-14.63 3.2-20.25 8.5-3.58 3.39-7.7 11.23-8.72 16.61l-0.63 3.25h-43.42c-33.883 0-43.49-0.27-43.756-1.25-3.244-11.91-3.97-13.4-8.807-18.1-6.744-6.55-12.463-8.96-21.29-8.98-8.067-0.02-12.776 1.68-19.167 6.92-5.224 4.28-9.142 10.68-10.141 16.56l-0.738 4.35-5.165 0.3c-4.309 0.25-5.341-0.03-6.227-1.68zm57.066-48.77c1.012-1.22 1.461-6.11 1.709-18.63 0.185-9.34 0.055-18.48-0.29-20.32-1.139-6.07-2.082-6.4-18.507-6.4-12.657 0-15.12 0.26-16.889 1.75-2.054 1.74-15.151 36.14-15.151 39.8 0 0.99 0.745 2.62 1.655 3.62 1.509 1.67 3.619 1.83 23.878 1.83 19.437 0 22.394-0.2 23.595-1.65zm51.045 0c2.7-2.45 2.33-5.26-3.23-24.42-3.45-11.88-5.71-17.98-7.11-19.18-1.73-1.47-4.13-1.75-15.333-1.75-19.111 0-18-1.48-18 24 0 18.81 0.131 20.26 1.941 21.58 1.515 1.11 6.112 1.42 20.922 1.42 16.26 0 19.24-0.23 20.81-1.65zm54.63 0.45c0.66-0.66 1.2-2.7 1.2-4.54 0-5.1-9.81-38.56-11.73-40.01-1.18-0.89-6.87-1.25-19.96-1.25-16.98 0-18.46 0.15-20.31 2-1.1 1.1-2 2.45-2 2.99 0 2.39 10.32 37.74 11.61 39.76 1.41 2.21 1.81 2.25 20.71 2.25 13.66 0 19.63-0.35 20.48-1.2zm50.63-0.37c2.44-2.45 1.88-6.64-3.36-24.89-3.58-12.46-5.46-17.43-7.08-18.75-1.94-1.57-4.4-1.79-20.1-1.79-16.56 0-18.04 0.15-19.89 2-1.1 1.1-2 2.82-2 3.82 0 2.88 10 36.43 11.6 38.93 1.41 2.21 1.84 2.25 20.35 2.25 15.85 0 19.16-0.25 20.48-1.57zm22.57 48.11c0-1.19 2.14-1.53 11.14-1.75 11.56-0.3 11.82-0.4 13.26-5.06 0.51-1.62 2.02-1.75 17.82-1.5l17.27 0.27-0.34 4c-0.19 2.2-0.55 4.34-0.81 4.75-0.25 0.41-13.48 0.75-29.4 0.75-24.77 0-28.94-0.21-28.94-1.46zm121.22-2.79c-0.49-2.34-0.71-4.59-0.5-5 0.47-0.88 32.67-1.02 33.55-0.14 0.33 0.33-0.36 2.58-1.54 5l-2.13 4.39h-28.49l-0.89-4.25zm-96.8-15.09c-0.28-0.73-0.38-14.05-0.22-29.58l0.3-28.24 3.26-2.92 3.27-2.92h58.53c65.49 0 63.42-0.21 65.45 6.76 0.7 2.41 0.98 13.37 0.79 30.74l-0.3 27-19.67 0.27-19.66 0.27-4.67-4.03c-5.86-5.07-8.56-6.45-15.75-8.05-9.67-2.14-20.77 1.25-27.7 8.45l-3.45 3.59h-19.83c-15.65 0-19.94-0.28-20.35-1.34z"/>
  <path id="path3513" fill="#010101" d="m39.173 835.03c-7.743-3.1-12.145-9.65-12.145-18.07 0-11.29 6.51-18.07 17.89-18.64 7.846-0.38 11.929 1.36 16.456 7.02 3.432 4.3 4.651 12.21 2.761 17.94-3.126 9.47-15.78 15.43-24.962 11.75zm159.36-0.82c-4.66-2.16-8.93-6.42-10.44-10.42-2.28-6.03-0.55-15.27 3.73-20.01 4.72-5.22 15.44-7.28 22.51-4.33 4.4 1.84 9.38 7.76 10.72 12.75 4.12 15.3-12.05 28.71-26.52 22.01zm76 0c-4.66-2.16-8.93-6.42-10.44-10.42-2.28-6.03-0.55-15.27 3.73-20.01 4.72-5.22 15.44-7.28 22.51-4.33 4.4 1.84 9.38 7.76 10.72 12.75 4.12 15.3-12.05 28.71-26.52 22.01zm115.5 0.3c-12.15-5.27-15.88-21.14-7.21-30.73 7.56-8.36 23.74-7.42 30.02 1.76 5.27 7.69 5.15 15.7-0.34 22.9-5.39 7.05-14.51 9.52-22.47 6.07zm101 0c-12.15-5.27-15.88-21.14-7.21-30.73 5.21-5.77 17.13-7.54 24.16-3.59 4.44 2.5 8.66 8.63 9.54 13.89 2.4 14.17-13.19 26.2-26.49 20.43zm-478.34-20.07c-0.367-0.37-0.667-9.81-0.667-20.98v-20.32l7.157-19.11c5.4-14.42 7.671-19.33 9.25-20 2.259-0.95 49.602-3.98 50.843-3.25 0.412 0.24 0.75 15.02 0.75 32.85 0 31.01 0.083 32.45 1.934 33.44 1.26 0.67 19.568 1.03 52.538 1.03h50.61l-2.46 4.25c-1.35 2.34-2.96 6.17-3.58 8.5l-1.12 4.25h-103.56l-1.728-5.48c-2.357-7.48-7.143-13.43-13.673-17.02-4.719-2.59-6.486-2.99-12.964-2.97-6.166 0.02-8.414 0.5-12.638 2.71-6.835 3.57-11.777 9.53-13.968 16.85-1.448 4.83-2.166 5.91-3.917 5.91-1.179 0-2.444-0.3-2.81-0.66zm29.271-42.34c10.141-1.09 18.816-2.35 19.278-2.81s0.714-7.56 0.562-15.76l-0.278-14.93-6.622-0.29c-9.534-0.42-24.8 1.29-26.476 2.96-1.561 1.56-11.372 26.44-11.39 28.88-0.017 2.16 2.005 3.96 4.438 3.94 1.127-0.01 10.347-0.91 20.488-1.99zm191.71 39.24c-0.33-2.07-1.95-5.9-3.6-8.5l-3.01-4.74h34.04l-2.46 4.25c-1.35 2.34-2.96 6.17-3.58 8.5l-1.12 4.25h-19.67l-0.6-3.76zm76 0c-0.33-2.07-1.95-5.9-3.6-8.5l-3.01-4.74h37.05l-0.29 6.22-0.3 6.21-7 2.24c-4.61 1.47-9.61 2.25-14.62 2.28l-7.63 0.05-0.6-3.76zm42.01-1.9c-0.36-0.37-0.66-3.07-0.66-6v-5.34h12.5c6.87 0 12.5 0.27 12.5 0.6s-0.89 1.84-1.98 3.37c-1.08 1.52-2.42 3.96-2.97 5.4-0.98 2.57-1.22 2.63-9.86 2.63-4.87 0-9.16-0.3-9.53-0.66zm71.47-2.38c-0.58-1.68-2.01-4.38-3.16-6l-2.11-2.96h29.57c16.26 0 29.57 0.27 29.57 0.6s-0.89 1.84-1.98 3.37c-1.08 1.52-2.42 3.96-2.97 5.4l-1 2.63h-46.86l-1.06-3.04zm101 0c-0.58-1.68-2.01-4.38-3.16-6l-2.11-2.96h25.14v12h-18.81l-1.06-3.04zm-429.13-57.45v-39.51h245.02l-0.26 39.25-0.26 39.25-122.25 0.26-122.25 0.25-0.002-39.5zm268.66 38.83c-0.36-0.37-0.66-18.15-0.66-39.5v-38.84h181v79h-89.84c-49.4 0-90.13-0.3-90.5-0.66z"/>
  <path id="path3485" fill="#010101" d="m435.05 695.68c-9.89-3.38-14.19-9.57-14.19-20.44 0-5.59 0.42-7.04 3.25-11.21 4.25-6.28 9.37-8.91 17.33-8.92 12.13-0.02 20.42 8.39 20.42 20.73 0 11.83-5.82 18.3-19 21.11-1.38 0.29-4.89-0.28-7.81-1.27zm148.48 0.46c-5.88-1.55-13.24-8.33-14.68-13.52-2.11-7.58-0.55-15.18 4.21-20.6 3.8-4.33 6.96-6.03 12.88-6.91 6.3-0.95 12.25 0.89 17.13 5.29 5.08 4.59 6.79 8.54 6.79 15.7 0 9.1-5.36 16.93-13.23 19.32-6.16 1.88-8.28 1.99-13.1 0.72zm-183.12-23.14c-1.51-1.5-1.65-3.94-1.3-22.3l0.39-20.6 8.18-22.41c4.5-12.32 8.18-23.67 8.18-25.21 0-1.79-0.73-3.2-2-3.88-1.54-0.83-2-2.1-2-5.54v-4.46h100.06c66.72 0 100.71 0.34 101.99 1.03 3.12 1.66 4.81 6.03 11.54 29.87l6.39 22.6 0.01 22.73 0.01 22.73-2.77 3.1c-1.96 2.19-3.75 3.14-6.18 3.26-3.21 0.17-3.47-0.06-4.25-3.71-3.24-15.18-16.98-25.6-32.15-24.38-6.92 0.56-11.23 2.42-17.02 7.36-5.21 4.45-6.54 6.51-9.15 14.28l-2.23 6.63h-86.7l-0.71-4.16c-2.8-16.43-20-27.38-36.71-23.38-4.68 1.13-12.8 6.23-15.9 9.99-2.69 3.26-5.63 9.71-6.17 13.55-0.56 3.95-0.62 4-5.19 4.3-3.32 0.21-5.11-0.18-6.32-1.4zm55.84-48.94c2.36-2.36 2.77-6.61 2.43-25.09-0.24-12.62-0.68-17.5-1.69-18.72-1.17-1.41-3.69-1.65-17-1.64-8.6 0.01-16.18 0.36-16.84 0.79-1.5 0.95-2.84 4.13-9.79 23.28-3.03 8.33-5.5 16-5.5 17.04 0 1.03 0.9 2.78 2 3.88 1.87 1.87 3.33 2 23.43 2 17.91 0 21.68-0.26 22.96-1.54zm51.78-0.12c1.02-0.93 1.82-3.01 1.82-4.75-0.01-4.33-10.52-38.68-12.15-39.71-0.74-0.47-7.67-0.86-15.4-0.87-10.58-0.01-14.54 0.34-16 1.41-1.81 1.32-1.94 2.77-1.94 21.39 0 18.24 0.16 20.16 1.9 22.08 1.81 2 2.86 2.11 20.92 2.11 16.3 0 19.28-0.24 20.85-1.66zm54.26 0.08c0.86-0.86 1.57-3 1.57-4.75 0-3.84-9.44-37.29-11.08-39.27-0.93-1.12-5.12-1.4-20.52-1.4h-19.36l-1.62 2.47c-1.54 2.36-1.36 3.41 3.97 22.25 3.49 12.31 6.24 20.25 7.29 21.03 1.21 0.89 6.92 1.25 19.94 1.25 15.24 0 18.49-0.26 19.81-1.58zm50.74-0.08c2.73-2.47 2.29-6.28-2.74-23.82-4.66-16.21-5.88-19.46-7.83-20.76-0.61-0.4-9.39-0.74-19.52-0.75-15.76-0.01-18.69 0.23-20.25 1.64-1.01 0.91-1.82 2.6-1.82 3.75 0.04 4.34 10.92 39.08 12.64 40.33 1.24 0.91 6.79 1.27 19.71 1.27 15.33 0 18.25-0.25 19.81-1.66z"/>
  <path id="path3481" fill="#010101" d="m48 691.68c-2.264-1.02-5.403-3.55-6.975-5.61-2.351-3.09-2.918-4.93-3.187-10.36-0.39-7.87 1.351-11.93 7.065-16.5 3.104-2.48 4.923-3.1 10.083-3.42 8.256-0.53 13.547 2.03 17.682 8.55 10.337 16.3-6.903 35.41-24.668 27.34zm161.12 0.49c-3.77-1.68-9.05-7.19-10.44-10.89-1.61-4.26-1.24-10.7 0.88-15.37 4-8.81 16.83-13.02 25.76-8.47 11.07 5.65 14.29 18.34 7.15 28.2-5.05 6.97-15.71 9.96-23.35 6.53zm76 0c-3.77-1.68-9.05-7.19-10.44-10.89-1.61-4.26-1.24-10.7 0.88-15.37 4-8.81 16.83-13.02 25.76-8.47 11.07 5.65 14.29 18.34 7.15 28.2-5.05 6.97-15.71 9.96-23.35 6.53zm-199.81-19.32c-0.234-0.42-1.172-3-2.084-5.75s-3.255-7.18-5.208-9.84c-9.34-12.74-30.624-13.76-41.54-2.01-3.138 3.38-6.339 9.56-7.33 14.15-0.616 2.85-1.081 3.27-3.372 3l-2.658-0.3-0.27-20.68-0.27-20.68 7.173-19.15c5.614-15 7.643-19.34 9.333-19.98 2.37-0.9 49.574-3.98 50.784-3.31 0.412 0.23 0.75 14.92 0.75 32.66 0 23.74 0.316 32.55 1.2 33.44 0.902 0.9 13.934 1.2 52.504 1.2 28.21 0 51.3 0.2 51.3 0.45s-1.08 2.05-2.4 3.99-2.94 5.79-3.6 8.54l-1.2 5.02h-51.34c-28.24 0-51.538-0.34-51.772-0.75zm-32.498-43.18c9.731-1.04 18.169-2.18 18.75-2.54 0.665-0.41 1.056-6.19 1.056-15.62 0-12.62-0.245-15.07-1.554-15.57-0.855-0.33-8.061-0.18-16.014 0.33-10.485 0.67-14.868 1.33-15.947 2.41-1.62 1.62-11.454 26.45-11.473 28.97-0.018 2.3 2.056 3.95 4.938 3.93 1.402-0.01 10.512-0.87 20.244-1.91zm192.5 43.18c-0.24-0.42-0.72-2.36-1.07-4.33-0.36-1.96-1.98-5.68-3.61-8.25l-2.97-4.67h16.98c9.34 0 16.98 0.2 16.98 0.45s-1.08 2.05-2.4 3.99-2.94 5.79-3.6 8.54l-1.2 5.02h-9.34c-5.14 0-9.54-0.34-9.77-0.75zm76.08 0.13c-0.28-0.49-0.8-2.49-1.15-4.46-0.36-1.96-1.98-5.68-3.61-8.25l-2.97-4.67h37.05l-0.3 6.16-0.29 6.16-7 2.4c-7.35 2.51-20.86 4.17-21.73 2.66zm-215.77-65.88v-39.5h245v79h-245v-39.5z"/>
  <path id="path3455" fill="#010101" d="m55.821 548.27c-7.239-3.76-10.5-9.15-10.5-17.33 0-5.82 1.29-9.69 4.317-12.94 8.262-8.89 23.842-7.92 30.327 1.88 2.09 3.16 2.868 5.71 3.147 10.33 0.337 5.57 0.072 6.58-2.89 11.01-2.138 3.2-4.662 5.52-7.331 6.73-4.988 2.27-13.039 2.42-17.07 0.32zm161 0.19c-4.38-1.92-10.27-8.9-11.07-13.12-1.69-9.04 2.3-17.74 9.82-21.38 18.33-8.87 36.46 11.56 24.68 27.82-5.21 7.2-15.51 10.13-23.43 6.68zm118-0.19c-5.11-2.65-8.45-6.61-10.16-12.04-1.43-4.51-1.47-5.84-0.33-9.91 2.47-8.84 9.79-14.5 18.7-14.46 10.83 0.05 18.31 7.07 19.09 17.91 0.45 6.19-0.68 9.27-5.27 14.37-4.92 5.47-15.6 7.47-22.03 4.13zm101 0c-5.11-2.65-8.45-6.61-10.16-12.04-1.43-4.51-1.47-5.84-0.33-9.91 2.47-8.84 9.79-14.5 18.7-14.46 10.83 0.05 18.31 7.07 19.09 17.91 0.45 6.19-0.68 9.27-5.27 14.37-4.92 5.47-15.6 7.47-22.03 4.13zm-403.25-19.51c-2.23-0.85-2.25-1.03-2.277-21.13l-0.027-20.29 7.245-19.35c5.493-14.68 7.741-19.55 9.3-20.14 2.24-0.86 49.537-3.9 50.759-3.27 0.413 0.21 0.75 14.89 0.75 32.62 0 23.75 0.317 32.56 1.2 33.44 0.899 0.91 13.929 1.2 52.499 1.2 28.22 0 51.3 0.27 51.3 0.6 0 0.32-0.85 1.67-1.89 2.99s-2.7 5.11-3.69 8.42l-1.8 6.01-51.48-0.26-51.472-0.26-1.86-5.5c-5.506-16.28-21.148-24.63-35.807-19.11-9.71 3.66-16.361 11.17-18.453 20.85-0.842 3.89-1.371 4.28-4.297 3.18zm28.817-42.79c9.112-0.98 17.1-2.11 17.75-2.51 0.826-0.51 1.183-5.26 1.183-15.71 0-12.56-0.248-15.06-1.541-15.56-0.847-0.33-8.083-0.15-16.078 0.39-10.43 0.71-14.954 1.41-16.013 2.47-2.47 2.47-11.566 27.87-10.913 30.47 0.725 2.89 2.582 2.92 25.612 0.45zm191.7 43.25c-0.28-0.48-0.8-2.49-1.15-4.45-0.35-1.97-1.98-5.68-3.61-8.25l-2.96-4.68h37.05l-0.3 6.25-0.3 6.25-7 2.34c-7.35 2.45-20.87 4.03-21.73 2.54zm44.23-11.38v-6h25.2l-2.16 3.25c-1.19 1.79-2.62 4.49-3.2 6-1.03 2.73-1.1 2.75-10.44 2.75h-9.4v-6zm71.54 3.31c-0.37-1.47-1.54-3.91-2.61-5.4-1.06-1.49-1.93-2.98-1.93-3.31s13.32-0.6 29.6-0.6h29.6l-2.16 3.25c-1.19 1.79-2.62 4.49-3.2 6l-1.03 2.75h-47.59l-0.68-2.69zm101 0c-0.37-1.47-1.54-3.91-2.61-5.4-1.06-1.49-1.93-2.98-1.93-3.31s5.63-0.6 12.5-0.6h12.5v12h-19.78l-0.68-2.69zm-356.54-57.81v-39.5h169v79h-169v-39.5zm196 0v-39.5h181v79h-181v-39.5z"/>
  <path id="path3431" fill="#010101" d="m258.16 400.38c-8.64-2.25-13.71-9.1-13.71-18.54 0-6.35 1.85-10.85 5.84-14.21 9.64-8.11 24.81-5.35 30.04 5.46 3.27 6.75 2.89 13.39-1.13 19.39-4.94 7.4-12.32 10.17-21.04 7.9zm156.79-1.41c-6.67-4.16-10.5-10.16-10.49-16.44 0.02-11.93 8.99-20.36 20.68-19.44 12.34 0.97 20.99 13.1 17.31 24.26-1.56 4.72-6.58 10.42-10.7 12.14-4.74 1.98-13.2 1.72-16.8-0.52zm-183.75-19.21c-1.57-0.92-1.75-3.04-1.75-21.35v-20.33l6.55-17.37c3.6-9.55 7.2-18.36 8-19.57 0.79-1.22 2.89-2.45 4.7-2.76 4.7-0.8 47.8-3.16 48.32-2.64 0.24 0.24 0.43 15.16 0.43 33.16 0 28.92 0.19 32.8 1.59 33.34 0.87 0.33 24.49 0.6 52.5 0.6 28.54 0 50.91 0.39 50.91 0.88 0 0.48-0.66 1.43-1.47 2.1-0.81 0.68-2.48 4.33-3.7 8.13l-2.22 6.91-51.56-0.26-51.55-0.26-1.67-5.23c-3.62-11.29-12.96-19.36-24.19-20.9-7.92-1.09-19.95 4.09-24.85 10.7-1.05 1.42-2.95 5.45-4.22 8.96-2.48 6.84-3.1 7.47-5.82 5.89zm27.73-42.47c8.81-0.86 17.04-1.97 18.27-2.48 2.2-0.9 2.25-1.31 2.25-15.98 0-12.52-0.25-15.15-1.51-15.63-2.76-1.06-30.66 1.39-32.07 2.82-2.4 2.43-11.59 27.99-10.96 30.49 0.72 2.88 1.97 2.92 24.02 0.78zm193.19 42.89c-0.37-0.37-0.67-1.63-0.67-2.79 0-2.18-2.18-6.96-5.4-11.8l-1.83-2.75h37.33l-0.3 6.25-0.3 6.25-8 2.69c-7.61 2.55-19.22 3.75-20.83 2.15zm-139.67-65.84v-39.5h169v79h-169v-39.5z"/>
  <path id="path3549" fill="#010101" d="m17.382 1113c-0.73-1.4-1-8.8-0.796-21.8l0.308-19.7 8.25-22.9c4.537-12.5 8.25-24 8.25-25.5 0-1.6-0.816-3.1-2-3.9-1.518-0.9-2-2.3-2-5.7v-4.5h148.46c112.96 0 149.08 0.3 151.07 1.2 1.44 0.6 3.24 2.4 3.99 3.8 0.75 1.5 4.32 13.1 7.93 25.9l6.55 23.1v22.1c0 24.1-0.49 26.6-5.71 28.8-1.9 0.8-9.67 1-24.29 0.9l-21.5-0.3-0.35-2.5c-0.19-1.4-1.59-5.2-3.1-8.6-2.98-6.5-8.69-12.1-15.62-15.1-4.99-2.2-17.52-2.2-22.43-0.1-8.74 3.7-16.9 13.9-18.51 23l-0.66 3.8-58.14-0.3-58.13-0.2-0.71-4.2c-1.55-9-8.44-17.5-17.72-21.6-5.437-2.4-15.646-2.8-21.39-0.9-9.087 3.2-18.02 13.4-19.548 22.3l-0.742 4.4-20.177 0.3c-19.499 0.2-20.214 0.2-21.281-1.8zm57.14-48.7c1.064-1.3 1.372-6.2 1.372-22.1 0-19-0.129-20.5-1.941-21.8-1.474-1.1-5.586-1.4-17.095-1.4-13.22 0-15.358 0.2-16.754 1.7-1.854 2.1-14.71 36.7-14.71 39.6 0 1.1 0.745 2.8 1.655 3.9 1.509 1.6 3.619 1.8 23.877 1.8 19.452 0 22.394-0.2 23.596-1.7zm51.048 0c1.03-0.9 1.81-3 1.8-4.7-0.04-4.4-10.5-38.7-12.12-39.7-0.75-0.5-7.7-0.9-15.451-0.9-18.787 0-17.802-1.1-18.225 20.8-0.347 18 0.075 22.3 2.431 24.6 2.366 2.4 38.925 2.3 41.565-0.1zm51 0c1-0.9 1.82-2.5 1.82-3.6 0-3.5-10.19-38.2-11.75-40-1.38-1.5-3.7-1.7-20.07-1.7-24.88 0-24.83-0.1-19.12 19.8 4.93 17.2 7.11 23.6 8.73 25.4 1.35 1.6 3.65 1.8 20.04 1.8 15.83 0 18.78-0.3 20.35-1.7zm51.4-0.8c1.54-2.3 1.35-3.4-3.99-22.2-3.44-12.2-6.25-20.3-7.29-21.1-1.2-0.9-6.89-1.2-19.92-1.2-20.21 0-21.38 0.3-21.38 6.2 0 4 8.69 35.5 10.61 38.5 1.41 2.2 1.81 2.3 20.89 2.3h19.46l1.62-2.5zm50.22 1.3c0.66-0.7 1.2-2.7 1.2-4.6 0-5.1-9.8-38.5-11.72-40-1.19-0.9-6.87-1.2-19.97-1.2-16.97 0-18.45 0.1-20.31 2-1.1 1.1-2 2.4-2 3 0 2.4 10.33 37.7 11.62 39.7 1.4 2.2 1.81 2.3 20.71 2.3 13.66 0 19.62-0.4 20.47-1.2zm50.38-0.5c2.68-2.4 2.31-5.6-2.77-23.6-4.68-16.5-5.85-19.6-7.81-21-0.6-0.4-9.39-0.7-19.52-0.7-15.75 0-18.68 0.2-20.25 1.6-1 0.9-1.83 2.7-1.83 3.9 0 3.1 9.9 36.6 11.61 39.2 1.41 2.2 1.84 2.3 20.09 2.3 15.95 0 18.91-0.3 20.48-1.7zm-246.42 71.6c-5.07-1.6-10.745-6.6-12.735-11.2-1.793-4.2-1.774-14.7 0.034-18.1 1.678-3.2 7.077-8.5 10.585-10.3 3.495-1.8 13.836-1.6 17.5 0.3 3.959 2.1 9.119 7.6 10.439 11.1 1.49 4 1.32 13.1-0.32 17-1.99 4.6-7.38 9.2-12.904 11.1-5.656 1.9-6.825 1.9-12.599 0.1zm175.88-0.4c-14.87-5.2-18.87-23.8-7.48-34.8 7.45-7.1 18.86-8 26.75-1.9 6.6 5 8.12 7.8 8.55 15.5 0.29 5-0.05 7.7-1.33 10.2-5.25 10.4-15.73 14.7-26.49 11z"/>
  <metadata>
    <rdf:RDF>
      <cc:Work>
        <dc:format>image/svg+xml</dc:format>
        <dc:type rdf:resource="http://purl.org/dc/dcmitype/StillImage"/>
        <cc:license rdf:resource="http://creativecommons.org/licenses/publicdomain/"/>
        <dc:publisher>
          <cc:Agent rdf:about="http://openclipart.org/">
            <dc:title>Openclipart</dc:title>
          </cc:Agent>
        </dc:publisher>
        <dc:title>Vehicles - Silhouette</dc:title>
        <dc:date>2008-07-25T17:16:53</dc:date>
        <dc:description>A set of black and white images of a stylized motorcycle, car, truck, car with trailer, truck with trailer, bus and bus with trailer, similar to those shown on information signs. Each vehicle image has been separated from each other image and each image is marked as one path, to make it easy to use the specific images as imports in other svg documents.</dc:description>
        <dc:source>http://openclipart.org/detail/18110/vehicles---silhouette-by-rfc1394</dc:source>
        <dc:creator>
          <cc:Agent>
            <dc:title>Rfc1394</dc:title>
          </cc:Agent>
        </dc:creator>
        <dc:subject>
          <rdf:Bag>
            <rdf:li>bus</rdf:li>
            <rdf:li>car</rdf:li>
            <rdf:li>clip art</rdf:li>
            <rdf:li>clipart</rdf:li>
            <rdf:li>image</rdf:li>
            <rdf:li>media</rdf:li>
            <rdf:li>png</rdf:li>
            <rdf:li>public domain</rdf:li>
            <rdf:li>svg</rdf:li>
            <rdf:li>trailer</rdf:li>
            <rdf:li>truck</rdf:li>
            <rdf:li>vehicles</rdf:li>
          </rdf:Bag>
        </dc:subject>
      </cc:Work>
      <cc:License rdf:about="http://creativecommons.org/licenses/publicdomain/">
        <cc:permits rdf:resource="http://creativecommons.org/ns#Reproduction"/>
        <cc:permits rdf:resource="http://creativecommons.org/ns#Distribution"/>
        <cc:permits rdf:resource="http://creativecommons.org/ns#DerivativeWorks"/>
      </cc:License>
    </rdf:RDF>
  </metadata>
</svg>
